<?xml version="1.0" encoding="UTF-8"?>
<svg version="1.1" xmlns="http://www.w3.org/2000/svg" width="802" height="337">
<path d="M0 0 C264.66 0 529.32 0 802 0 C802 111.21 802 222.42 802 337 C537.34 337 272.68 337 0 337 C0 225.79 0 114.58 0 0 Z " fill="#040046" transform="translate(0,0)"/>
<path d="M0 0 C0.94694229 -0.00700928 1.89388458 -0.01401855 2.86952209 -0.02124023 C5.99542691 -0.03882513 9.12042408 -0.02719447 12.24633789 -0.01367188 C14.42200392 -0.01636686 16.59766878 -0.02024934 18.77333069 -0.02526855 C23.33207675 -0.03116448 27.89050917 -0.02259819 32.44921875 -0.00390625 C38.28804244 0.01886948 44.12613011 0.00576911 49.96492672 -0.01819611 C54.4577029 -0.03266292 58.95030515 -0.02804373 63.44308662 -0.01768494 C65.59563853 -0.01501941 67.7482063 -0.01828128 69.90073967 -0.02760315 C72.91211528 -0.03778146 75.92230619 -0.02224841 78.93359375 0 C79.82053925 -0.00809692 80.70748474 -0.01619385 81.62130737 -0.02453613 C86.97269146 0.04857333 90.50689359 0.62393391 94.53149414 4.51757812 C95.25302124 7.42828369 95.25302124 7.42828369 95.21264648 10.84667969 C95.21196671 12.76821869 95.21196671 12.76821869 95.21127319 14.72857666 C95.18063539 16.12179976 95.14933945 17.51500853 95.11743164 18.90820312 C95.10623619 20.33736388 95.09769764 21.76654771 95.09170532 23.19573975 C95.06883319 26.95121216 95.00992785 30.70528457 94.94348145 34.46020508 C94.88202166 38.29424093 94.85468267 42.1285038 94.82446289 45.96289062 C94.76017966 53.48175697 94.657824 60.99947114 94.53149414 68.51757812 C95.81024414 68.49695313 97.08899414 68.47632813 98.40649414 68.45507812 C102.28149414 68.39257812 102.28149414 68.39257812 104.53149414 69.51757812 C104.85397818 75.56116797 105.07762238 80.3250332 101.53149414 85.51757812 C98.57264596 88.1933216 96.68498987 88.89433448 92.71827698 88.9119873 C91.7523764 88.9233371 90.78647583 88.93468689 89.79130554 88.94638062 C88.21165764 88.94198471 88.21165764 88.94198471 86.60009766 88.9375 C85.4858844 88.94596954 84.37167114 88.95443909 83.22369385 88.96316528 C79.53581367 88.98658905 75.84834937 88.98755614 72.16040039 88.98632812 C69.59976534 88.99342629 67.03913189 89.00112477 64.47850037 89.00939941 C59.10931355 89.02285654 53.74028069 89.02458822 48.37109375 89.01855469 C42.16904085 89.01191339 35.96758262 89.03478223 29.76565033 89.07186842 C23.79409336 89.10627843 17.82271969 89.11290125 11.85105705 89.10877991 C9.31249151 89.11047524 6.77391843 89.12015723 4.23541451 89.13792419 C0.687223 89.16002488 -2.85952884 89.15045545 -6.40771484 89.1328125 C-7.45878922 89.14607574 -8.50986359 89.15933899 -9.5927887 89.17300415 C-16.7212255 89.09052294 -16.7212255 89.09052294 -20.5348053 86.16662598 C-23.59704667 81.97154837 -24.71557795 80.01814214 -24.59350586 74.83007812 C-24.57545898 73.83621094 -24.55741211 72.84234375 -24.53881836 71.81835938 C-24.51561523 71.05910156 -24.49241211 70.29984375 -24.46850586 69.51757812 C-21.25399317 67.91032178 -18.0323805 68.46009628 -14.46850586 68.51757812 C-14.47960892 67.7246637 -14.49071198 66.93174927 -14.50215149 66.11480713 C-14.60235977 58.64030677 -14.67847309 51.16613231 -14.72756672 43.69113541 C-14.75365512 39.84816064 -14.78903734 36.00574112 -14.84570312 32.16308594 C-14.90005297 28.45424703 -14.9299321 24.74594195 -14.94289207 21.03673553 C-14.9521269 19.622084 -14.97016113 18.20746151 -14.99715614 16.79303741 C-15.03347414 14.81120834 -15.03554846 12.82884142 -15.03613281 10.84667969 C-15.04723587 9.71860901 -15.05833893 8.59053833 -15.06977844 7.42828369 C-14.46850586 4.51757812 -14.46850586 4.51757812 -12.52481079 2.15435791 C-8.27782333 -0.12008243 -4.74970516 -0.04326132 0 0 Z " fill="#07044B" transform="translate(581.468505859375,117.482421875)"/>
<path d="M0 0 C7.47721242 6.54120038 11.57775544 12.45637214 12.51953125 22.5859375 C12.60433568 30.61691668 12.09202899 36.89620363 8.18359375 43.97265625 C7.74789062 44.77574219 7.3121875 45.57882813 6.86328125 46.40625 C2.80774287 53.15439993 -1.86228417 56.37579926 -9.06640625 59.28515625 C-17.42388809 60.81736125 -26.14295171 61.03674514 -33.81640625 56.97265625 C-41.24388965 51.74310161 -41.24388965 51.74310161 -42.53515625 47.75 C-42.62796875 47.16347656 -42.72078125 46.57695312 -42.81640625 45.97265625 C-43.47640625 45.97265625 -44.13640625 45.97265625 -44.81640625 45.97265625 C-47.36777095 39.53446967 -48.31234256 33.87876529 -48.25390625 26.97265625 C-48.27388672 26.13476562 -48.29386719 25.296875 -48.31445312 24.43359375 C-48.30755789 15.52495257 -45.14071591 8.29696591 -38.81640625 1.97265625 C-27.86622347 -6.50490461 -11.65651908 -8.39075368 0 0 Z " fill="#6169E8" transform="translate(472.81640625,207.02734375)"/>
<path d="M0 0 C6.94706082 6.07741419 10.51840862 10.6025003 11.18359375 19.97265625 C11.27447266 21.02138916 11.27447266 21.02138916 11.3671875 22.09130859 C12.20437715 33.29382494 11.50591236 41.90444672 4.18359375 50.97265625 C-3.55873342 58.19553016 -11.38209473 60.44920564 -21.82421875 60.21484375 C-30.38033286 59.52231232 -35.96600541 56.16797868 -41.81640625 49.97265625 C-49.48186881 40.2899667 -48.96819961 27.74787984 -47.81640625 15.97265625 C-45.92396995 8.42931715 -41.14662818 3.3013223 -34.81640625 -1.02734375 C-24.36008068 -6.86995041 -9.89572635 -7.12327597 0 0 Z " fill="#6484EB" transform="translate(395.81640625,82.02734375)"/>
<path d="M0 0 C36.90625 0 36.90625 0 47.3125 9 C50.82869437 13.16734147 50.24876913 18.54956099 50.3125 23.75 C50.34150391 24.5234375 50.37050781 25.296875 50.40039062 26.09375 C50.47174292 32.63620625 48.81610186 37.79996486 44.44921875 42.76220703 C37.91805886 49.18999908 29.93663604 51.14035843 21.02587891 51.27685547 C17.34960756 51.24046984 13.67478983 51.11051999 10 51 C10 61.89 10 72.78 10 84 C6.7 84 3.4 84 0 84 C0 56.28 0 28.56 0 0 Z " fill="#6AD0EF" transform="translate(133,56)"/>
<path d="M0 0 C4.29 0 8.58 0 13 0 C14.28581414 3.93142775 15.56892158 7.86358166 16.84521484 11.7980957 C17.28015954 13.13617501 17.71667209 14.47374574 18.15478516 15.81079102 C18.78440139 17.73319069 19.40790843 19.65758784 20.03125 21.58203125 C20.59682617 23.31803589 20.59682617 23.31803589 21.17382812 25.08911133 C22 28 22 28 22 31 C22.66 31 23.32 31 24 31 C24.2928186 31.96933472 24.2928186 31.96933472 24.59155273 32.95825195 C29.77631065 50.07592037 35.27265428 67.05660225 41 84 C37.37 84 33.74 84 30 84 C28.64560332 81.29120665 28.93498549 78.99066732 29 76 C28.34 76 27.68 76 27 76 C26.49307308 74.4188708 25.99473557 72.83498617 25.5 71.25 C25.2215625 70.36828125 24.943125 69.4865625 24.65625 68.578125 C24 66 24 66 24 62 C6.675 62.495 6.675 62.495 -11 63 C-13.31 69.93 -15.62 76.86 -18 84 C-21.3 84 -24.6 84 -28 84 C-27.73933024 82.33171353 -27.46582623 80.66543177 -27.1875 79 C-27.03667969 78.071875 -26.88585937 77.14375 -26.73046875 76.1875 C-26.02108548 73.09200938 -25.02169435 70.22969495 -23.87231445 67.27294922 C-22.13427818 62.7442289 -20.58570931 58.14626837 -19 53.5625 C-18.6169873 52.4580957 -18.23397461 51.35369141 -17.83935547 50.21582031 C-15.53727169 43.54777899 -13.28260693 36.86623419 -11.0703125 30.16796875 C-10.82488708 29.42603775 -10.57946167 28.68410675 -10.32659912 27.91969299 C-9.1176502 24.26303345 -7.91406929 20.60474101 -6.71875 16.94360352 C-6.2735944 15.59255897 -5.82828895 14.24156379 -5.3828125 12.890625 C-4.99496582 11.70500977 -4.60711914 10.51939453 -4.20751953 9.29785156 C-3.01961733 6.0535768 -1.60674649 3.05554753 0 0 Z " fill="#68CBED" transform="translate(152,181)"/>
<path d="M0 0 C0.78375 0.5775 1.5675 1.155 2.375 1.75 C6.80469056 7.88341769 6.27093081 15.83383239 6.1953125 23.0625 C6.1924826 24.09439453 6.18965271 25.12628906 6.18673706 26.18945312 C6.17561252 29.45975732 6.15052226 32.72977968 6.125 36 C6.11496022 38.22786061 6.10583612 40.45572554 6.09765625 42.68359375 C6.0756985 48.12250312 6.04122222 53.5612039 6 59 C1.545 59.495 1.545 59.495 -3 60 C-3.495 57.03 -3.495 57.03 -4 54 C-5.35544922 54.63228516 -5.35544922 54.63228516 -6.73828125 55.27734375 C-7.91777344 55.82519531 -9.09726563 56.37304688 -10.3125 56.9375 C-11.48425781 57.48277344 -12.65601563 58.02804688 -13.86328125 58.58984375 C-20.81637315 61.71570449 -28.21429769 62.28443471 -35.5 59.8125 C-39.78099541 56.70877833 -42.60341887 53.12079747 -44 48 C-44.67155827 43.25432156 -44.66351226 39.35736908 -42 35.25 C-36.05224905 28.0928178 -28.01367798 25.30994628 -19 24 C-13.99796815 23.70038962 -9.0056433 23.81536562 -4 24 C-4.30924214 21.89535207 -4.6225056 19.7912947 -4.9375 17.6875 C-5.11152344 16.51574219 -5.28554687 15.34398437 -5.46484375 14.13671875 C-5.92093031 10.98358597 -5.92093031 10.98358597 -7 8 C-15.0267372 3.66239157 -26.27183659 5.89666557 -35 7 C-35.33 4.36 -35.66 1.72 -36 -1 C-24.68709037 -4.39387289 -10.17739917 -7.57387845 0 0 Z " fill="#67B8ED" transform="translate(235,81)"/>
<path d="M0 0 C0.94694229 -0.00700928 1.89388458 -0.01401855 2.86952209 -0.02124023 C5.99542691 -0.03882513 9.12042408 -0.02719447 12.24633789 -0.01367188 C14.42200392 -0.01636686 16.59766878 -0.02024934 18.77333069 -0.02526855 C23.33207675 -0.03116448 27.89050917 -0.02259819 32.44921875 -0.00390625 C38.28804244 0.01886948 44.12613011 0.00576911 49.96492672 -0.01819611 C54.4577029 -0.03266292 58.95030515 -0.02804373 63.44308662 -0.01768494 C65.59563853 -0.01501941 67.7482063 -0.01828128 69.90073967 -0.02760315 C72.91211528 -0.03778146 75.92230619 -0.02224841 78.93359375 0 C79.82053925 -0.00809692 80.70748474 -0.01619385 81.62130737 -0.02453613 C86.97269146 0.04857333 90.50689359 0.62393391 94.53149414 4.51757812 C95.25302124 7.42828369 95.25302124 7.42828369 95.21264648 10.84667969 C95.21196671 12.76821869 95.21196671 12.76821869 95.21127319 14.72857666 C95.18063539 16.12179976 95.14933945 17.51500853 95.11743164 18.90820312 C95.10623619 20.33736388 95.09769764 21.76654771 95.09170532 23.19573975 C95.06883319 26.95121216 95.00992785 30.70528457 94.94348145 34.46020508 C94.88202166 38.29424093 94.85468267 42.1285038 94.82446289 45.96289062 C94.76017966 53.48175697 94.657824 60.99947114 94.53149414 68.51757812 C95.81024414 68.49695313 97.08899414 68.47632813 98.40649414 68.45507812 C102.28149414 68.39257812 102.28149414 68.39257812 104.53149414 69.51757812 C104.85397818 75.56116797 105.07762238 80.3250332 101.53149414 85.51757812 C98.57264596 88.1933216 96.68498987 88.89433448 92.71827698 88.9119873 C91.7523764 88.9233371 90.78647583 88.93468689 89.79130554 88.94638062 C88.21165764 88.94198471 88.21165764 88.94198471 86.60009766 88.9375 C85.4858844 88.94596954 84.37167114 88.95443909 83.22369385 88.96316528 C79.53581367 88.98658905 75.84834937 88.98755614 72.16040039 88.98632812 C69.59976534 88.99342629 67.03913189 89.00112477 64.47850037 89.00939941 C59.10931355 89.02285654 53.74028069 89.02458822 48.37109375 89.01855469 C42.16904085 89.01191339 35.96758262 89.03478223 29.76565033 89.07186842 C23.79409336 89.10627843 17.82271969 89.11290125 11.85105705 89.10877991 C9.31249151 89.11047524 6.77391843 89.12015723 4.23541451 89.13792419 C0.687223 89.16002488 -2.85952884 89.15045545 -6.40771484 89.1328125 C-7.45878922 89.14607574 -8.50986359 89.15933899 -9.5927887 89.17300415 C-16.7212255 89.09052294 -16.7212255 89.09052294 -20.5348053 86.16662598 C-23.59704667 81.97154837 -24.71557795 80.01814214 -24.59350586 74.83007812 C-24.57545898 73.83621094 -24.55741211 72.84234375 -24.53881836 71.81835938 C-24.51561523 71.05910156 -24.49241211 70.29984375 -24.46850586 69.51757812 C-21.25399317 67.91032178 -18.0323805 68.46009628 -14.46850586 68.51757812 C-14.47960892 67.7246637 -14.49071198 66.93174927 -14.50215149 66.11480713 C-14.60235977 58.64030677 -14.67847309 51.16613231 -14.72756672 43.69113541 C-14.75365512 39.84816064 -14.78903734 36.00574112 -14.84570312 32.16308594 C-14.90005297 28.45424703 -14.9299321 24.74594195 -14.94289207 21.03673553 C-14.9521269 19.622084 -14.97016113 18.20746151 -14.99715614 16.79303741 C-15.03347414 14.81120834 -15.03554846 12.82884142 -15.03613281 10.84667969 C-15.04723587 9.71860901 -15.05833893 8.59053833 -15.06977844 7.42828369 C-14.46850586 4.51757812 -14.46850586 4.51757812 -12.52481079 2.15435791 C-8.27782333 -0.12008243 -4.74970516 -0.04326132 0 0 Z M-10.46850586 6.51757812 C-10.46850586 28.29757813 -10.46850586 50.07757813 -10.46850586 72.51757812 C-14.92350586 73.01257813 -14.92350586 73.01257813 -19.46850586 73.51757812 C-19.8862239 76.84957997 -19.8862239 76.84957997 -19.46850586 80.51757812 C-17.33134004 83.05193594 -15.57159003 84.33468852 -12.26258659 84.88331604 C-9.45650983 85.04013296 -6.67712987 85.0578142 -3.86669922 85.03515625 C-2.7995015 85.04216553 -1.73230377 85.0491748 -0.63276672 85.05639648 C2.89230419 85.07399162 6.41657142 85.06234848 9.94165039 85.04882812 C12.39115045 85.05152238 14.84064947 85.05540425 17.29014587 85.0604248 C22.42221261 85.06632177 27.5540008 85.05774934 32.68603516 85.0390625 C39.26937279 85.0162613 45.85205858 85.0294029 52.43537235 85.05335236 C57.49251737 85.0677944 62.54950739 85.06321177 67.60665703 85.05284119 C70.03438837 85.05017014 72.46213372 85.05345688 74.88984871 85.0627594 C78.27997345 85.07289961 81.66903653 85.05745844 85.05908203 85.03515625 C86.06542694 85.04325317 87.07177185 85.0513501 88.10861206 85.05969238 C93.46966653 85.04223267 93.46966653 85.04223267 98.1703949 82.71960449 C100.09240915 79.61011333 99.80643082 77.0917549 99.53149414 73.51757812 C96.89149414 73.18757813 94.25149414 72.85757813 91.53149414 72.51757812 C91.51603294 71.30275253 91.51603294 71.30275253 91.5002594 70.06338501 C91.40239049 62.44097097 91.29989133 54.81864008 91.19215488 47.19635963 C91.1369273 43.27741964 91.08350757 39.35847217 91.03417969 35.43945312 C90.98653368 31.65928932 90.93419081 27.87921739 90.87855339 24.09916306 C90.8581309 22.6550563 90.83941763 21.21092435 90.82242012 19.76677322 C90.79837408 17.74826561 90.76775537 15.72983951 90.73681641 13.71142578 C90.72127213 12.56114899 90.70572784 11.41087219 90.68971252 10.22573853 C90.71195685 7.54993163 90.71195685 7.54993163 89.53149414 5.51757812 C76.78842618 5.4944463 64.04536317 5.47665873 51.30227852 5.46576595 C45.3856749 5.46053897 39.46908561 5.45344466 33.55249023 5.44213867 C27.84668715 5.43130326 22.14089787 5.42529989 16.4350853 5.42270088 C14.25410622 5.42084782 12.07312792 5.41722947 9.89215469 5.41184807 C6.84629917 5.40462899 3.80050132 5.40358756 0.75463867 5.40405273 C-0.60913406 5.39865982 -0.60913406 5.39865982 -2.00045776 5.39315796 C-6.37128632 5.26147389 -6.37128632 5.26147389 -10.46850586 6.51757812 Z " fill="#6291E7" transform="translate(581.468505859375,117.482421875)"/>
<path d="M0 0 C4.64173178 2.74967349 9.53118127 6.69523349 11.22070312 11.99536133 C12.6985099 19.87975455 13.32635322 29.79671827 10.33203125 37.30078125 C6.77613658 42.16589168 2.57124854 45.09506645 -3.38671875 46.08984375 C-9.39388175 46.73247049 -14.28118703 46.65184263 -19.38671875 43.08984375 C-22.78597331 39.87533129 -24.96547409 36.86394994 -25.38671875 32.08984375 C-26.04671875 32.08984375 -26.70671875 32.08984375 -27.38671875 32.08984375 C-27.49562586 29.08884787 -27.5744543 26.09187997 -27.63671875 23.08984375 C-27.67023438 22.25066406 -27.70375 21.41148438 -27.73828125 20.546875 C-27.83144634 14.53772676 -26.79837755 10.0993111 -23.38671875 5.08984375 C-16.8614441 -1.10916717 -8.68430485 -3.31169072 0 0 Z " fill="#06034A" transform="translate(385.38671875,86.91015625)"/>
<path d="M0 0 C4.21948154 2.95440847 6.120382 6.57876619 7.13671875 11.49609375 C7.96140802 19.89226565 8.79694556 29.62921987 3.734375 36.79296875 C-0.94100666 41.77699418 -4.96308791 43.78173998 -11.86328125 44.12109375 C-18.71184945 43.82671787 -23.10676943 41.43637302 -27.73828125 36.49609375 C-30.93928144 30.80542674 -31.19927454 26.0394617 -31.17578125 19.62109375 C-31.19189453 18.74839844 -31.20800781 17.87570313 -31.22460938 16.9765625 C-31.22882241 11.37321949 -30.53936427 7.44395949 -27.86328125 2.49609375 C-19.64575164 -5.50518508 -9.68069125 -5.36465308 0 0 Z " fill="#050148" transform="translate(466.86328125,214.50390625)"/>
<path d="M0 0 C3.3 0 6.6 0 10 0 C10.33 17.49 10.66 34.98 11 53 C17.55801952 55.18600651 22.51206384 53.69819108 28.66796875 51.16796875 C31.05835336 50.05810826 31.05835336 50.05810826 33.17578125 48.36328125 C35 47 35 47 37 47 C37 31.49 37 15.98 37 0 C40.63 0 44.26 0 48 0 C48 20.46 48 40.92 48 62 C43.05 62.495 43.05 62.495 38 63 C38 60.36 38 57.72 38 55 C37.28714844 55.48210937 36.57429688 55.96421875 35.83984375 56.4609375 C27.74382934 61.80016639 20.8495204 65.1143618 11 64 C6.2570065 62.47866246 4.21352936 60.45435582 1.76171875 56.109375 C-0.54982601 49.70817414 -0.13253462 42.73837077 -0.09765625 36.03515625 C-0.0962413 35.00184677 -0.09482635 33.96853729 -0.09336853 32.90391541 C-0.08779839 29.6234134 -0.07525141 26.34298117 -0.0625 23.0625 C-0.05748114 20.83007911 -0.05291891 18.59765715 -0.04882812 16.36523438 C-0.03783874 10.91012961 -0.02059476 5.45507661 0 0 Z " fill="#618AE5" transform="translate(319,203)"/>
<path d="M0 0 C4.43534206 3.02901409 6.74714882 5.25730789 8.16546631 10.55276489 C8.99063687 15.11936408 8.80295507 19.74618228 8.7578125 24.37109375 C8.7549826 25.47099136 8.75215271 26.57088898 8.74923706 27.70411682 C8.7380898 31.19869103 8.71299498 34.69300394 8.6875 38.1875 C8.67746316 40.56444941 8.66833854 42.94140286 8.66015625 45.31835938 C8.63816827 51.12900611 8.60367582 56.93945883 8.5625 62.75 C5.2625 62.75 1.9625 62.75 -1.4375 62.75 C-1.7675 45.59 -2.0975 28.43 -2.4375 10.75 C-7.2231803 8.83572788 -10.4467139 7.6932184 -15.4375 8.75 C-19.21639913 10.41337931 -22.83294253 12.25452343 -26.4609375 14.21875 C-29.4375 15.75 -29.4375 15.75 -31.4375 15.75 C-31.4375 31.26 -31.4375 46.77 -31.4375 62.75 C-34.7375 62.75 -38.0375 62.75 -41.4375 62.75 C-41.4375 42.29 -41.4375 21.83 -41.4375 0.75 C-36.9825 0.255 -36.9825 0.255 -32.4375 -0.25 C-32.4375 2.39 -32.4375 5.03 -32.4375 7.75 C-31.38949219 7.18410156 -30.34148437 6.61820312 -29.26171875 6.03515625 C-27.88287898 5.29414712 -26.50396906 4.5532685 -25.125 3.8125 C-24.43470703 3.43931641 -23.74441406 3.06613281 -23.03320312 2.68164062 C-22.36611328 2.32392578 -21.69902344 1.96621094 -21.01171875 1.59765625 C-20.39901123 1.26773682 -19.78630371 0.93781738 -19.1550293 0.59790039 C-13.22277465 -2.33070237 -6.13063224 -2.22932081 0 0 Z " fill="#5F6AE6" transform="translate(463.4375,78.25)"/>
<path d="M0 0 C20.79 0 41.58 0 63 0 C63 3.3 63 6.6 63 10 C54.09 10 45.18 10 36 10 C36 34.42 36 58.84 36 84 C32.7 84 29.4 84 26 84 C26 59.58 26 35.16 26 10 C17.42 10 8.84 10 0 10 C0 6.7 0 3.4 0 0 Z " fill="#67A5EF" transform="translate(254,181)"/>
<path d="M0 0 C0 2.97 0 5.94 0 9 C-1.216875 8.835 -2.43375 8.67 -3.6875 8.5 C-7.72994133 8.063673 -11.74741395 7.84176266 -15.8125 7.75 C-17.43091797 7.71132812 -17.43091797 7.71132812 -19.08203125 7.671875 C-22.3827875 8.04304438 -23.72174379 8.60381053 -26 11 C-26.68850829 13.0316566 -26.68850829 13.0316566 -26.75 15.1875 C-26.8325 16.445625 -26.915 17.70375 -27 19 C-26.0409375 19.34417969 -26.0409375 19.34417969 -25.0625 19.6953125 C-20.88051597 21.47692304 -16.96868287 23.66516522 -13 25.875 C-12.2059375 26.30941406 -11.411875 26.74382812 -10.59375 27.19140625 C-5.26116139 30.15099293 -0.44971925 32.82542112 3 38 C3.6690762 43.82718687 3.84476364 49.2166101 1.3125 54.5625 C-4.09703416 60.26444141 -8.63759897 62.67930457 -16.61328125 63.265625 C-24.03615336 63.23427179 -30.78586492 62.7757871 -38 61 C-37.67 57.7 -37.34 54.4 -37 51 C-35.411875 51.33 -33.82375 51.66 -32.1875 52 C-23.5015015 53.55386588 -15.94331315 54.23643368 -8 50 C-7.57769581 46.93829465 -7.34898316 44.95916745 -8 42 C-10.96898644 38.24483334 -15.46286619 36.25135245 -19.66015625 34.1328125 C-20.98230448 33.46459652 -22.30391073 32.79530717 -23.625 32.125 C-24.28266357 31.79161621 -24.94032715 31.45823242 -25.61791992 31.11474609 C-31.62597087 27.93468419 -34.97223548 24.05552904 -38 18 C-38.62355035 14.12451616 -38.78999666 10.54984077 -36.9765625 6.9921875 C-27.62042617 -4.94851687 -13.28807177 -2.92965362 0 0 Z " fill="#6598EB" transform="translate(334,79)"/>
<path d="M0 0 C0.84454356 3.37817425 1.10844919 5.67465243 0 9 C-1.2375 8.835 -2.475 8.67 -3.75 8.5 C-7.58429491 8.08744928 -11.39439003 7.84543589 -15.25 7.75 C-16.71179688 7.71132812 -16.71179688 7.71132812 -18.203125 7.671875 C-21.5140396 8.06030632 -23.36465121 8.97972364 -26 11 C-26.75015195 13.95691709 -26.75015195 13.95691709 -26 17 C-22.60933076 21.31458176 -17.81684535 23.47962415 -13.0625 26 C1.46984768 33.74120215 1.46984768 33.74120215 4 40 C4.7483615 45.30432052 4.96574119 50.29851969 2 54.9375 C-2.13429418 59.83522918 -7.78832718 62.04645373 -14 63 C-21.96662908 63.41372591 -29.30271033 63.12339025 -37 61 C-36.67 58.03 -36.34 55.06 -36 52 C-33.8653125 52.2475 -33.8653125 52.2475 -31.6875 52.5 C-19.44039269 53.75063815 -19.44039269 53.75063815 -8 50 C-6.72095208 48.90956624 -6.72095208 48.90956624 -6.5 46.3125 C-7.09129748 42.39515422 -8.4029482 41.03556828 -11.47265625 38.625 C-15.32179031 36.15013174 -19.4165134 34.17858853 -23.49682617 32.11523438 C-29.43700236 29.00112622 -33.95653673 25.08692655 -37 19 C-38.31506363 9.01747151 -38.31506363 9.01747151 -35.68359375 4.98046875 C-33.87661415 3.38369706 -32.09934647 2.18243823 -30 1 C-28.948125 0.38125 -27.89625 -0.2375 -26.8125 -0.875 C-17.91785492 -3.49964937 -8.90188758 -1.96262088 0 0 Z " fill="#6159EA" transform="translate(523,79)"/>
<path d="M0 0 C2.97 0 5.94 0 9 0 C9 5.94 9 11.88 9 18 C14.94 18 20.88 18 27 18 C27 20.64 27 23.28 27 26 C21.06 26 15.12 26 9 26 C9.09347175 32.06920432 9.19955179 38.13800674 9.31738281 44.20678711 C9.35569348 46.27182965 9.39054266 48.3369394 9.421875 50.40209961 C9.46748014 53.36857138 9.52548201 56.3345796 9.5859375 59.30078125 C9.59748871 60.2258699 9.60903992 61.15095856 9.62094116 62.1040802 C9.64081085 62.96474594 9.66068054 63.82541168 9.68115234 64.7121582 C9.69447601 65.46938675 9.70779968 66.2266153 9.7215271 67.00679016 C9.89708612 69.31605188 9.89708612 69.31605188 12 72 C19.04207705 71.2812193 19.04207705 71.2812193 26 70 C28.1519437 73.22791555 28.20086443 74.28400809 28 78 C21.52718166 81.38351868 16.30238611 82.74594267 9 82 C6.1875 80.6875 6.1875 80.6875 4 79 C3.2575 78.566875 2.515 78.13375 1.75 77.6875 C-1.09621519 74.94293535 -0.94087045 71.60285887 -1.08255005 67.76226807 C-1.11572062 65.10385139 -1.11238734 62.44764266 -1.09765625 59.7890625 C-1.0962413 58.82092621 -1.09482635 57.85278992 -1.09336853 56.85531616 C-1.08779365 53.77851201 -1.07524577 50.70178197 -1.0625 47.625 C-1.05748175 45.53255314 -1.05291941 43.44010513 -1.04882812 41.34765625 C-1.03783245 36.2317425 -1.02058515 31.11588379 -1 26 C-4.63 26 -8.26 26 -12 26 C-12 23.36 -12 20.72 -12 18 C-8.37 18 -4.74 18 -1 18 C-1.01740234 16.17662109 -1.01740234 16.17662109 -1.03515625 14.31640625 C-1.04453278 12.73177236 -1.05363313 11.14713682 -1.0625 9.5625 C-1.07087891 8.76005859 -1.07925781 7.95761719 -1.08789062 7.13085938 C-1.0965143 5.08704779 -1.0522815 3.04316098 -1 1 C-0.67 0.67 -0.34 0.34 0 0 Z " fill="#627CE9" transform="translate(389,185)"/>
<path d="M0 0 C21.31751257 -0.50356329 21.31751257 -0.50356329 28.203125 4.6484375 C30.71799784 7.93964065 30.49886162 10.27604358 30.4375 14.375 C30.43621094 15.66148438 30.43492187 16.94796875 30.43359375 18.2734375 C29.90196929 22.8425342 28.43367757 26.0884299 25.6875 29.75 C20.56163192 33.54693932 14.68620147 33.24968883 8.625 33.125 C4.355625 33.063125 4.355625 33.063125 0 33 C0 22.11 0 11.22 0 0 Z " fill="#07064B" transform="translate(143,65)"/>
<path d="M0 0 C0.66 0.33 1.32 0.66 2 1 C1.51421457 4.12290635 1.0013988 6.99580359 0 10 C-1.216875 10.0825 -2.43375 10.165 -3.6875 10.25 C-9.11635493 10.9489531 -11.6428028 13.37331752 -15.10253906 17.52001953 C-17.61814072 22.13368217 -17.6023881 25.81953022 -17.609375 30.9921875 C-17.62591125 31.93812775 -17.64244751 32.88406799 -17.65948486 33.8586731 C-17.70786315 36.86418212 -17.72931338 39.86918552 -17.75 42.875 C-17.77816816 44.91929613 -17.80809677 46.96356881 -17.83984375 49.0078125 C-17.91361956 54.0051667 -17.96325644 59.00224187 -18 64 C-21.3 64 -24.6 64 -28 64 C-28 43.54 -28 23.08 -28 2 C-23.545 1.505 -23.545 1.505 -19 1 C-19 3.64 -19 6.28 -19 9 C-18.45730469 8.51789063 -17.91460937 8.03578125 -17.35546875 7.5390625 C-16.64003906 6.90742188 -15.92460937 6.27578125 -15.1875 5.625 C-14.47980469 4.99851563 -13.77210938 4.37203125 -13.04296875 3.7265625 C-8.31486753 -0.26927065 -5.97663064 -0.28460146 0 0 Z " fill="#5F57E6" transform="translate(527,202)"/>
<path d="M0 0 C-0.33 2.97 -0.66 5.94 -1 9 C-2.485 9.144375 -3.97 9.28875 -5.5 9.4375 C-10.87090901 10.61416558 -13.81320028 12.50851387 -17.34570312 16.69897461 C-21.12491985 24.24011825 -20.08633629 33.313273 -20 41.5625 C-20.00810019 43.54493996 -20.01978503 45.52736871 -20.03515625 47.50976562 C-20.06485987 52.34070321 -20.0457443 57.16921165 -20 62 C-22.97 62 -25.94 62 -29 62 C-29 41.87 -29 21.74 -29 1 C-26.36 1 -23.72 1 -21 1 C-21 3.64 -21 6.28 -21 9 C-20.01 9 -19.02 9 -18 9 C-17.95875 8.443125 -17.9175 7.88625 -17.875 7.3125 C-14.5954215 -1.35495747 -7.51038965 -0.96562153 0 0 Z " fill="#68ABEF" transform="translate(288,78)"/>
<path d="M0 0 C0 20.79 0 41.58 0 63 C-3.3 63 -6.6 63 -10 63 C-10 42.54 -10 22.08 -10 1 C-6 0 -6 0 0 0 Z " fill="#65B7E9" transform="translate(215,202)"/>
<path d="M0 0 C2.84852415 2.84852415 3.39018376 6.27818125 4.4375 10.0625 C4.88163619 11.62142936 5.32693662 13.18002753 5.7734375 14.73828125 C5.98581055 15.48287598 6.19818359 16.2274707 6.41699219 16.99462891 C7.07745752 19.26643053 7.7980075 21.51112912 8.5625 23.75 C10.4941835 29.46106427 12.22698531 35.23770227 14 41 C4.76 41 -4.48 41 -14 41 C-10.9317919 30.52319185 -7.79034658 20.11816393 -4.1875 9.8125 C-3.88577881 8.94592773 -3.58405762 8.07935547 -3.27319336 7.18652344 C-1.1302521 1.1302521 -1.1302521 1.1302521 0 0 Z " fill="#090A4E" transform="translate(158,192)"/>
<path d="M0 0 C0.59129782 4.79608228 0.88599183 9.23049905 0 14 C-4.80160909 19.04920588 -11.54829957 21.13185724 -18.375 21.375 C-22.34139822 21.32246492 -23.74007178 21.16309222 -27.1875 19 C-29.51068909 15.15472151 -30.0658737 12.37896443 -29 8 C-25.94967955 3.42451933 -22.11220694 1.87410792 -16.98046875 0.4921875 C-11.34606743 -0.43826409 -5.68934089 -0.22134323 0 0 Z " fill="#07064B" transform="translate(231,112)"/>
<path d="M0 0 C0.70744354 0.00141495 1.41488708 0.0028299 2.14376831 0.00428772 C4.40578419 0.00989025 6.66770148 0.02244307 8.9296875 0.03515625 C10.46223815 0.04017093 11.99479036 0.04473389 13.52734375 0.04882812 C17.28649638 0.05986048 21.04557522 0.07712673 24.8046875 0.09765625 C25.2996875 2.07765625 25.2996875 2.07765625 25.8046875 4.09765625 C32.0746875 4.09765625 38.3446875 4.09765625 44.8046875 4.09765625 C45.1346875 2.77765625 45.4646875 1.45765625 45.8046875 0.09765625 C56.3646875 0.09765625 66.9246875 0.09765625 77.8046875 0.09765625 C78.2996875 2.07765625 78.2996875 2.07765625 78.8046875 4.09765625 C76.96408904 5.93825471 73.97301607 5.27197453 71.50390625 5.30859375 C69.57321289 5.35113281 69.57321289 5.35113281 67.60351562 5.39453125 C65.54956549 5.43573288 63.49584686 5.4726092 61.44165039 5.49902344 C59.46217758 5.52669836 57.48300432 5.57366654 55.50390625 5.62109375 C54.31627686 5.64091309 53.12864746 5.66073242 51.9050293 5.68115234 C48.51076738 6.13714186 47.41225736 7.01568 44.8046875 9.09765625 C42.56225586 9.48583984 42.56225586 9.48583984 40.14453125 9.49609375 C39.26861328 9.49996094 38.39269531 9.50382813 37.49023438 9.5078125 C36.58337891 9.49621094 35.67652344 9.48460937 34.7421875 9.47265625 C33.37610352 9.49005859 33.37610352 9.49005859 31.98242188 9.5078125 C30.67047852 9.50201172 30.67047852 9.50201172 29.33203125 9.49609375 C28.13694946 9.49101807 28.13694946 9.49101807 26.91772461 9.48583984 C24.8046875 9.09765625 24.8046875 9.09765625 23.45019531 7.60473633 C20.86186741 5.23415055 18.38760613 5.65847732 14.94921875 5.5859375 C14.28758224 5.5679863 13.62594574 5.5500351 12.94425964 5.53153992 C10.83530003 5.47744727 8.72656651 5.44354694 6.6171875 5.41015625 C5.18551542 5.37698198 3.75387317 5.3424922 2.32226562 5.30664062 C-1.1833764 5.22172368 -4.68909723 5.15490704 -8.1953125 5.09765625 C-8.5253125 3.77765625 -8.8553125 2.45765625 -9.1953125 1.09765625 C-6.23720774 -0.38139613 -3.240597 -0.02425278 0 0 Z " fill="#618FE5" transform="translate(586.1953125,185.90234375)"/>
<path d="M0 0 C20.79 0 41.58 0 63 0 C63.495 1.98 63.495 1.98 64 4 C42.55 4 21.1 4 -1 4 C-0.67 2.68 -0.34 1.36 0 0 Z " fill="#6799F0" transform="translate(590,169)"/>
<path d="M0 0 C17.49 0 34.98 0 53 0 C53 1.32 53 2.64 53 4 C35.51 4 18.02 4 0 4 C0 2.68 0 1.36 0 0 Z " fill="#6793F0" transform="translate(600,155)"/>
<path d="M0 0 C14.19 0 28.38 0 43 0 C43 1.32 43 2.64 43 4 C28.81 4 14.62 4 0 4 C0 2.68 0 1.36 0 0 Z " fill="#678EF0" transform="translate(610,141)"/>
<path d="M0 0 C0.99 0.66 1.98 1.32 3 2 C3.5 4.875 3.5 4.875 3 8 C0.9375 10.4375 0.9375 10.4375 -2 12 C-5.6875 11.9375 -5.6875 11.9375 -9 11 C-11.31361802 7.52957297 -11.51020728 6.08165827 -11 2 C-7.81045276 -1.95503858 -4.60859706 -1.08930476 0 0 Z " fill="#67BAEC" transform="translate(214,180)"/>
<path d="M0 0 C4.3928738 0.53031089 6.87767004 2.06972467 10.3125 4.8125 C11.19550781 5.49957031 12.07851563 6.18664062 12.98828125 6.89453125 C15 9 15 9 15 13 C12.734375 15.359375 12.734375 15.359375 9.75 17.75 C8.77546875 18.54921875 7.8009375 19.3484375 6.796875 20.171875 C4 22 4 22 0 22 C0 20.68 0 19.36 0 18 C1.75 16.3671875 1.75 16.3671875 4 14.875 C5.36404088 13.96090316 6.70606001 13.01089062 8 12 C8 11.34 8 10.68 8 10 C5.98687816 8.42724857 3.87857992 7.04447487 1.75 5.6328125 C1.1725 5.09398437 0.595 4.55515625 0 4 C0 2.68 0 1.36 0 0 Z " fill="#61A6E3" transform="translate(589,132)"/>
<path d="M0 0 C0.66 0.33 1.32 0.66 2 1 C-0.97 3.97 -3.94 6.94 -7 10 C-7.66 9.67 -8.32 9.34 -9 9 C-8.06725891 7.87105124 -7.12859878 6.74699124 -6.1875 5.625 C-5.66542969 4.99851563 -5.14335938 4.37203125 -4.60546875 3.7265625 C-3 2 -3 2 0 0 Z " fill="#140F62" transform="translate(519,212)"/>
<path d="M0 0 C0.66 0.33 1.32 0.66 2 1 C-1.3 4.3 -4.6 7.6 -8 11 C-8 7.0234755 -6.61988497 5.9109833 -4 3 C-1.75 1.1875 -1.75 1.1875 0 0 Z " fill="#535FD0" transform="translate(438,206)"/>
<path d="M0 0 C0.66 0.33 1.32 0.66 2 1 C0.71451591 2.33929505 -0.57858155 3.67128643 -1.875 5 C-2.59429687 5.7425 -3.31359375 6.485 -4.0546875 7.25 C-6 9 -6 9 -8 9 C-6.4169423 4.7257442 -3.49431596 2.73468206 0 0 Z " fill="#5473CF" transform="translate(361,81)"/>
<path d="M0 0 C0.66 0.33 1.32 0.66 2 1 C1.0479279 2.00596297 0.08812654 3.00461563 -0.875 4 C-1.40867187 4.556875 -1.94234375 5.11375 -2.4921875 5.6875 C-4 7 -4 7 -6 7 C-4.60667426 3.63279613 -3.0210714 2.0140476 0 0 Z " fill="#171768" transform="translate(444,213)"/>
<path d="M0 0 C0.66 0.33 1.32 0.66 2 1 C1.0479279 2.00596297 0.08812654 3.00461563 -0.875 4 C-1.40867187 4.556875 -1.94234375 5.11375 -2.4921875 5.6875 C-4 7 -4 7 -6 7 C-4.60667426 3.63279613 -3.0210714 2.0140476 0 0 Z " fill="#161A66" transform="translate(367,88)"/>
<path d="M0 0 C0.66 0.33 1.32 0.66 2 1 C1.38125 1.5775 0.7625 2.155 0.125 2.75 C-1.81347053 4.80249821 -2.90014249 6.43366582 -4 9 C-4.25 6.1875 -4.25 6.1875 -4 3 C-2 1.125 -2 1.125 0 0 Z " fill="#5191C6" transform="translate(207,179)"/>
<path d="M0 0 C0.66 0.33 1.32 0.66 2 1 C1.0479279 2.00596297 0.08812654 3.00461563 -0.875 4 C-1.40867188 4.556875 -1.94234375 5.11375 -2.4921875 5.6875 C-4 7 -4 7 -6 7 C-4.60667426 3.63279613 -3.0210714 2.0140476 0 0 Z " fill="#58A1D3" transform="translate(200,110)"/>
</svg>
